<?xml version="1.0" encoding="iso-8859-1"?>
<!-- Generator: Adobe Illustrator 18.1.1, SVG Export Plug-In . SVG Version: 6.00 Build 0)  -->
<svg version="1.1" id="Capa_1" xmlns="http://www.w3.org/2000/svg" xmlns:xlink="http://www.w3.org/1999/xlink" x="0px" y="0px"
	 viewBox="0 0 28 28" style="enable-background:new 0 0 28 28;" xml:space="preserve">
<g>
	<g>
		<path style="fill:#5a5a5a;" d="M24,11.518V0H0v24h11.518c1.614,2.411,4.361,3.999,7.482,4c4.971-0.002,8.998-4.029,9-9
			C27.999,15.879,26.411,13.132,24,11.518z M11.517,14c-0.412,0.616-0.743,1.289-0.994,2H4v2h6.058C10.022,18.329,10,18.661,10,19
			c0,1.055,0.19,2.061,0.523,3H2V2h20v8.523C21.061,10.19,20.055,10,19,10c-2.143,0-4.107,0.751-5.652,2H4v2H11.517z M19,25.883
			c-3.801-0.009-6.876-3.084-6.885-6.883c0.009-3.801,3.084-6.876,6.885-6.884c3.799,0.008,6.874,3.083,6.883,6.884
			C25.874,22.799,22.799,25.874,19,25.883z"/>
		<polygon style="fill:#5a5a5a;" points="20,8 4,8 4,10 19,10 20,10 		"/>
		<polygon style="fill:#5a5a5a;" points="20.002,18 20.002,14 18,14 18,18 14,18 14,20 18,20 18,24 20.002,24 20.002,20 24,20 
			24,18 		"/>
	</g>
</g>
</svg>
