<svg id="Layer_1" data-name="Layer 1" xmlns="http://www.w3.org/2000/svg" viewBox="-5 -15 104.53 122"><defs><style>.cls-1{fill:#eeb534;}.cls-2{fill:#3669b2;}.cls-3{fill:#b2b3b6;}.cls-4{fill:#46b1e5;}.cls-5{fill:#221f1f;}</style></defs><title>CXQ_Logo_Final</title><path class="cls-1" d="M64.22,8A49.21,49.21,0,0,0,52.57,9.34l3.59,11.2a50.07,50.07,0,0,1,8.06-.89,36,36,0,0,1,35.84,35.84A35,35,0,0,1,79,87.74l3.59,11.2a47.19,47.19,0,0,0,28.67-43.45C111.71,29.06,90.2,8,64.22,8Z" transform="translate(-16.73 -8)"/><path class="cls-2" d="M64.22,91.33A36,36,0,0,1,28.38,55.49a35.56,35.56,0,0,1,21.5-32.71l-4-11.2A47.56,47.56,0,0,0,64.22,103a35.88,35.88,0,0,0,12.1-1.8L72.73,90A28,28,0,0,1,64.22,91.33Z" transform="translate(-16.73 -8)"/><polygon class="cls-3" points="60.48 81.54 62.72 74.82 77.5 112 64.96 97.66 61.82 102.59 46.59 64.96 60.48 81.54"/><polygon class="cls-4" points="30.82 40.86 30.82 48.49 44.2 48.49 44.2 55.57 24.06 55.57 24.06 33.66 44.2 33.66 44.2 40.86 30.82 40.86"/><polygon class="cls-5" points="66.42 56.07 56.18 56.07 34.65 33.66 44.88 33.66 66.42 56.07"/><polygon class="cls-5" points="34.3 65.66 24.06 65.66 60.24 28.82 70.47 28.82 34.3 65.66"/></svg>