<svg id="Layer_1" data-name="Layer 1" xmlns="http://www.w3.org/2000/svg" viewBox="0 0 14 16"><defs><style>.cls-1{fill:#5a5a5a;}</style></defs><title>copy_grey</title><path class="cls-1" d="M9.47,4.37H3.09A1.09,1.09,0,0,0,2,5.46v9.16A1.08,1.08,0,0,0,3.09,15.7H9.47a1.08,1.08,0,0,0,1.09-1.08V5.46A1.09,1.09,0,0,0,9.47,4.37ZM9.8,14.62a.32.32,0,0,1-.33.32H3.08a.32.32,0,0,1-.32-.32V5.46a.32.32,0,0,1,.32-.33H9.47a.33.33,0,0,1,.33.33Zm0,0"/><path class="cls-1" d="M11.91,2H5.53A1.08,1.08,0,0,0,4.44,3.05a.38.38,0,1,0,.76,0,.32.32,0,0,1,.33-.32h6.38a.32.32,0,0,1,.33.32v9.17a.32.32,0,0,1-.33.32.38.38,0,1,0,0,.76A1.08,1.08,0,0,0,13,12.22V3.05A1.08,1.08,0,0,0,11.91,2Zm0,0"/>
</svg>