<svg id="Layer_1" data-name="Layer 1" xmlns="http://www.w3.org/2000/svg" viewBox="0 0 14 16"><defs><style>.cls-1{fill:#eccbcb;}</style></defs><title>edit_blue</title><path class="cls-1" d="M13.24,4.21l-.64-.62a1.3,1.3,0,0,0-.77-.31.69.69,0,0,0-.49.23l-.58.59-.27.27L1.74,13.25s-.09.13-.13.18l-.52,2a.44.44,0,0,0,.14.45.4.4,0,0,0,.31.13h.14l2-.56c.09,0,.13,0,.17-.14l9.6-9.78a.74.74,0,0,0,.18-.5,1.35,1.35,0,0,0-.37-.81ZM3.29,14.59l-1.08.32.3-1.08,8.3-8.56.82.8Zm9-9.15-.82-.81.45-.45s0,0,.09.09l.63.62c.05.05.05.09.09.09Zm0,0"/></svg>