<?xml version="1.0" encoding="iso-8859-1"?>
<!-- Generator: Adobe Illustrator 19.0.0, SVG Export Plug-In . SVG Version: 6.00 Build 0)  -->
<svg version="1.1" id="Capa_1" xmlns="http://www.w3.org/2000/svg" xmlns:xlink="http://www.w3.org/1999/xlink" x="0px" y="0px"
	 viewBox="0 0 512 512" style="enable-background:new 0 0 512 512;" xml:space="preserve"><defs><style>.cls-1{fill:#0aa0ecf2;}</style></defs>
<g>
	<path class="cls-1" d="M503.917,196.594l-46.833-11.719c-2.469-6.906-5.365-13.823-8.656-20.688l24.885-41.479
		c2.521-4.198,1.854-9.573-1.604-13.031l-69.385-69.396c-3.458-3.469-8.854-4.115-13.031-1.604l-41.49,24.896
		c-6.854-3.292-13.771-6.188-20.677-8.656L315.406,8.083C314.219,3.333,309.958,0,305.063,0h-98.125
		c-4.896,0-9.156,3.333-10.344,8.083l-11.719,46.833c-6.906,2.469-13.823,5.365-20.677,8.656l-41.49-24.896
		c-4.198-2.5-9.573-1.865-13.031,1.604l-69.385,69.396c-3.458,3.458-4.125,8.833-1.604,13.031l24.885,41.479
		c-3.292,6.865-6.188,13.781-8.656,20.688L8.083,196.594C3.333,197.781,0,202.042,0,206.938v98.125
		c0,4.896,3.333,9.156,8.083,10.344l46.833,11.719c2.469,6.906,5.365,13.823,8.656,20.688l-24.885,41.479
		c-2.521,4.198-1.854,9.573,1.604,13.031l69.385,69.385c3.438,3.448,8.823,4.104,13.031,1.604l41.479-24.885
		c6.865,3.292,13.781,6.188,20.688,8.656l11.719,46.833c1.188,4.75,5.448,8.083,10.344,8.083h98.125
		c4.896,0,9.156-3.333,10.344-8.083l11.719-46.833c6.906-2.469,13.823-5.365,20.688-8.656l41.479,24.885
		c4.198,2.51,9.573,1.865,13.031-1.604l69.385-69.385c3.458-3.458,4.125-8.833,1.604-13.031l-24.885-41.479
		c3.292-6.865,6.188-13.781,8.656-20.688l46.833-11.719c4.75-1.188,8.083-5.448,8.083-10.344v-98.125
		C512,202.042,508.667,197.781,503.917,196.594z M256,362.667c-58.813,0-106.667-47.854-106.667-106.667
		S197.188,149.333,256,149.333S362.667,197.188,362.667,256S314.813,362.667,256,362.667z"/>
	
</g>

</svg>
