<?xml version="1.0" encoding="iso-8859-1"?>
<!-- Generator: Adobe Illustrator 19.0.0, SVG Export Plug-In . SVG Version: 6.00 Build 0)  -->
<svg version="1.1" id="Capa_1" xmlns="http://www.w3.org/2000/svg" xmlns:xlink="http://www.w3.org/1999/xlink" x="0px" y="0px"
	 viewBox="0 0 512.006 512.006" style="enable-background:new 0 0 512.006 512.006;" xml:space="preserve">
<g transform="translate(0 -1)">
	<path style="fill:#D75E72;" d="M450.298,290.021l-8.916,55.261c0,0-111.448,88.828-150.069,88.276h-70.621
		C174.899,431.902,66.21,323.213,66.21,323.213l-3.884-30.897c-8.651-136.21,84.392-183.437,88.188-185.379h0.088
		c16.758-9.931,50.965-8.092,61.175-0.177l0.088,0.177c16.454,8.991,31.068,21,43.079,35.399h2.648
		c12.06-14.314,26.628-26.31,42.99-35.399c20.18-4.383,41.059-4.443,61.263-0.177l0.088,0.177
		C361.934,106.937,457.978,152.752,450.298,290.021z"/>
	<path style="fill:#46B29D;" d="M203.037,195.213c-0.052,13.882,5.409,27.217,15.183,37.076
		c-9.269,6.886-41.666,36.105-41.666,104.166l-0.706,0.883c-4.586-3.86-9.856-6.825-15.537-8.739
		c-16.564-6.713-31.943-16.042-45.55-27.63c-2.737-2.207-5.385-4.326-7.857-6.444c-12.535-10.593-31.161-4.943-42.726,6.621
		l2.03,22.069l-3.884-30.897c-8.651-136.21,84.392-183.437,88.188-185.379h0.088c9.061,5.806,19.606,8.872,30.367,8.828
		c10.922,0.026,21.619-3.1,30.808-9.004l0.088,0.177c16.454,8.991,31.068,21,43.079,35.399
		C226.122,142.869,203.037,166.386,203.037,195.213z"/>
	<g>
		<path style="fill:#FDD7AD;" d="M238.348,58.385c-0.039,31.673-25.706,57.34-57.379,57.379
			c-10.789,0.044-21.362-3.021-30.455-8.828c-23.354-14.654-32.976-43.852-22.909-69.519c10.066-25.667,36.972-40.54,64.061-35.411
			S238.361,30.814,238.348,58.385z"/>
		<path style="fill:#FDD7AD;" d="M388.417,58.385c-0.039,31.673-25.706,57.34-57.379,57.379
			c-10.789,0.044-21.362-3.021-30.455-8.828c-23.354-14.654-32.976-43.852-22.909-69.519s36.972-40.54,64.061-35.411
			S388.43,30.814,388.417,58.385z"/>
	</g>
	<path style="fill:#F0C419;" d="M336.157,337.337c-3.631,2.88-6.918,6.168-9.799,9.799c-11.538,14.987-17.667,33.436-17.39,52.348
		v25.247h-8.828c-4.869,0.015-8.813,3.958-8.828,8.828h-70.621c-0.015-4.869-3.958-8.813-8.828-8.828h-8.828v-25.247
		c0.277-18.912-5.852-37.361-17.39-52.348c-2.88-3.631-6.168-6.918-9.799-9.799l0.706-0.883c0-68.061,32.397-97.28,41.666-104.166
		c9.945,10.162,23.564,15.89,37.782,15.89c14.218,0,27.838-5.728,37.782-15.89c9.268,6.886,41.666,36.105,41.666,104.166
		L336.157,337.337z"/>
	<path style="fill:#FDD7AD;" d="M308.968,195.213c0.043,29.124-23.437,52.819-52.561,53.042
		c-29.124,0.223-52.963-23.11-53.365-52.232c-0.403-29.122,22.783-53.105,51.901-53.687c0.348-0.073,0.704-0.103,1.059-0.088
		c0.531-0.015,1.063,0.015,1.589,0.088C286.202,143.16,308.967,166.591,308.968,195.213z"/>
	<path style="fill:#527F72;" d="M114.753,318.799c-4.311-0.005-7.988-3.123-8.698-7.375c-9.147-54.888,17.125-117.069,18.25-119.69
		c1.932-4.462,7.108-6.521,11.577-4.606c4.469,1.915,6.549,7.082,4.652,11.559c-0.254,0.595-25.349,60.116-17.065,109.832
		c0.427,2.561-0.296,5.18-1.975,7.161C119.815,317.66,117.349,318.801,114.753,318.799z"/>
	<path style="fill:#802D40;" d="M397.253,318.799c-2.596,0.002-5.062-1.139-6.741-3.12c-1.679-1.98-2.401-4.6-1.975-7.161
		c8.306-49.836-16.806-109.233-17.06-109.828c-1.243-2.898-0.845-6.239,1.044-8.765c1.889-2.525,4.981-3.851,8.112-3.478
		c3.131,0.373,5.826,2.388,7.068,5.286c1.125,2.621,27.397,64.802,18.25,119.69C405.24,315.676,401.564,318.793,397.253,318.799z"/>
	<g>
		<path style="fill:#F29C1F;" d="M194.21,398.247c-4.875,0-8.828-3.952-8.828-8.828c0-2.418,0.323-59.625,28.491-93.884
			c2.002-2.442,5.155-3.63,8.271-3.114c3.115,0.516,5.718,2.656,6.826,5.613c1.108,2.957,0.551,6.281-1.458,8.716
			c-24.194,29.422-24.474,82.138-24.474,82.668C203.037,394.295,199.085,398.247,194.21,398.247z"/>
		<path style="fill:#F29C1F;" d="M317.796,398.243c-4.87,0-8.82-3.944-8.828-8.815c0-0.53-0.358-53.349-24.474-82.677
			c-3.087-3.767-2.54-9.322,1.221-12.415c3.761-3.093,9.317-2.557,12.417,1.199c28.168,34.259,28.491,91.465,28.491,93.884
			c-0.001,4.871-3.948,8.82-8.819,8.823H317.796z"/>
	</g>
	<g>
		<path style="fill:#FDD7AD;" d="M203.037,399.483v25.247l2.482,11.172l-88.183,2.069l0.25-13.241l-63.823-63.823
			c-7.287-7.218-13.182-15.717-17.39-25.07L1.768,259.742c-1.171-2.516-1.774-5.258-1.766-8.033
			c0.026-10.666,8.666-19.306,19.332-19.332c7.743-0.029,14.743,4.603,17.743,11.741l19.774,46.08
			c0.53,1.235,1.148,2.56,1.766,3.796c0.382,0.955,0.855,1.872,1.412,2.737c0,0.177,0.088,0.265,0.177,0.441
			c0.177,0.353,0.441,0.794,0.618,1.148l3.354-1.766v-0.088c3.192-3.21,7.049-5.681,11.299-7.239
			c10.657-4.106,22.704-2.075,31.426,5.297c2.472,2.119,5.12,4.237,7.857,6.444c13.607,11.589,28.986,20.917,45.55,27.63
			c5.68,1.915,10.951,4.879,15.537,8.739c3.631,2.88,6.918,6.168,9.799,9.799C197.185,362.122,203.314,380.571,203.037,399.483z"/>
		<path style="fill:#FDD7AD;" d="M512.003,251.709c0.008,2.775-0.594,5.518-1.766,8.033l-34.604,76.094
			c-4.208,9.354-10.103,17.852-17.39,25.07l-63.823,63.823l-0.26,15.994l-85.927-2.752l0.736-13.241v-25.247
			c-0.277-18.912,5.852-37.361,17.39-52.348c2.88-3.631,6.168-6.918,9.799-9.799c4.586-3.86,9.856-6.825,15.537-8.739
			c16.564-6.713,31.943-16.042,45.55-27.63c2.737-2.207,5.385-4.326,7.857-6.444c12.591-10.529,31.141-9.685,42.726,1.942v0.088
			l3.354,1.766c0.794-1.501,1.589-3.001,2.295-4.502c0.618-1.148,1.148-2.383,1.677-3.619l19.774-46.08
			c3.001-7.138,10.001-11.77,17.743-11.741C503.337,232.403,511.977,241.043,512.003,251.709z"/>
	</g>
	<g>
		<path style="fill:#FAC176;" d="M121.029,351.549c-3.481,3.414-9.054,3.414-12.535,0l-32.75-32.839
			c-5.962-5.85-10.993-12.578-14.919-19.95c-0.282-0.497-0.49-1.032-0.618-1.589c0.177,0.353,0.441,0.794,0.618,1.148l3.354-1.766
			v-0.088c3.192-3.21,7.049-5.681,11.299-7.239c0.343,0.375,0.64,0.79,0.883,1.236c3.151,5.816,7.137,11.139,11.829,15.801
			l32.839,32.75C124.472,342.483,124.472,348.08,121.029,351.549z"/>
		<path style="fill:#FAC176;" d="M390.998,351.549c3.481,3.414,9.054,3.414,12.535,0l32.75-32.839
			c5.962-5.85,10.993-12.578,14.919-19.95c0.282-0.497,0.49-1.032,0.618-1.589c-0.177,0.353-0.441,0.794-0.618,1.148l-3.354-1.766
			v-0.088c-3.192-3.21-7.049-5.681-11.299-7.239c-0.343,0.375-0.64,0.79-0.883,1.236c-3.151,5.816-7.137,11.139-11.829,15.801
			l-32.839,32.75C387.556,342.483,387.556,348.08,390.998,351.549z"/>
	</g>
	<path style="fill:#4482C3;" d="M114.761,424.73h97.103c4.875,0,8.828,3.952,8.828,8.828v70.621c0,4.875-3.952,8.828-8.828,8.828
		h-97.103c-4.875,0-8.828-3.952-8.828-8.828v-70.621C105.934,428.682,109.886,424.73,114.761,424.73z"/>
	<path style="fill:#285680;" d="M194.21,477.695h-8.828c-4.875,0-8.828-3.952-8.828-8.828s3.952-8.828,8.828-8.828h8.828
		c4.875,0,8.828,3.952,8.828,8.828S199.085,477.695,194.21,477.695z"/>
	<path style="fill:#4482C3;" d="M300.141,424.73h97.103c4.875,0,8.828,3.952,8.828,8.828v70.621c0,4.875-3.952,8.828-8.828,8.828
		h-97.103c-4.875,0-8.828-3.952-8.828-8.828v-70.621C291.313,428.682,295.265,424.73,300.141,424.73z"/>
	<path style="fill:#285680;" d="M326.624,477.695h-8.828c-4.875,0-8.828-3.952-8.828-8.828s3.952-8.828,8.828-8.828h8.828
		c4.875,0,8.828,3.952,8.828,8.828S331.499,477.695,326.624,477.695z"/>
</g>
<g>
</g>
<g>
</g>
<g>
</g>
<g>
</g>
<g>
</g>
<g>
</g>
<g>
</g>
<g>
</g>
<g>
</g>
<g>
</g>
<g>
</g>
<g>
</g>
<g>
</g>
<g>
</g>
<g>
</g>
</svg>
